# xmcd
#
# Track frame offsets: 
#        150
#        18689
#        30134
#        44591
#        60594
#        73278
#        84852
#
# Disc length: 1287 seconds
#
# Revision: 0
# Processed by: cddbd v1.5.2PL0 Copyright (c) Steve Scherf et al.
# Submitted via: ExactAudioCopy v0.95b4
#
DISCID=54050507
DTITLE=No Strings Attached - No Strings Attached
DYEAR=1900
DGENRE=Bluegrass
TTITLE0=Raining in LA
TTITLE1=How Can it Be
TTITLE2=Don't Know the Blues
TTITLE3=I Know Leaving, I Know Gone
TTITLE4=I Know You Too Well
TTITLE5=Norma Jean
TTITLE6=One More Round
EXTD=
EXTT0=
EXTT1=
EXTT2=
EXTT3=
EXTT4=
EXTT5=
EXTT6=
PLAYORDER=
